<svg xmlns="http://www.w3.org/2000/svg" viewBox="0 0 120 120" role="img" aria-label="Kitty seal"><title>Kitty seal</title><g transform="translate(60 60)"><path d="M-43.39,16.27 Q-53.15,7.86 -48.04,-2.75 Q-51.03,-14.26 -40.62,-22.03 Q-41.42,-32.84 -31.91,-35.48 Q-28.81,-46.55 -16.71,-43.06 Q-7.91,-52.95 3.39,-46.07 Q12.99,-52.55 18.96,-44.32 Q29.89,-43.28 34.00,-32.36 Q46.99,-27.66 43.24,-13.09 Q54.35,-6.36 45.73,2.68 Q52.45,13.97 41.81,20.64 Q43.45,31.62 33.08,33.86 Q26.39,44.74 14.06,46.05 Q5.91,52.82 -3.65,46.92 Q-12.52,50.17 -18.60,42.25 Q-30.24,42.12 -34.04,31.07 Q-46.10,28.19 -43.39,16.27 Z" fill="#22151F"/><circle r="36" fill="none" stroke="#F6EEDF" stroke-opacity=".35" stroke-width="1.2"/><g transform="translate(-40.80 -21.08) scale(0.34)"><path fill="#F6EEDF" fill-rule="evenodd" d="M113,63 C97,39 62,17 27,18 C12,18.5 6.5,29 10,43 C16,69 42,94 72,96 C89,97 103,90 113,81 Z M31,52 C44,37.5 76,35.5 95,56 C77,72.5 47,71 31,52 Z M127,63 C143,39 178,17 213,18 C228,18.5 233.5,29 230,43 C224,69 198,94 168,96 C151,97 137,90 127,81 Z M209,52 C196,37.5 164,35.5 145,56 C163,72.5 193,71 209,52 Z"/><circle cx="120" cy="70" r="14" fill="#F6EEDF"/><g fill="none" stroke="#F6EEDF" stroke-width="10.35" stroke-linecap="round"><path d="M114.5,80 C111.5,95 105,108 94,119"/><path d="M125.5,80 C128.5,95 135,108 146,119"/></g></g></g></svg>
